<?xml version="1.0" encoding="iso-8859-1"?>
<!-- Generator: Adobe Illustrator 19.0.0, SVG Export Plug-In . SVG Version: 6.00 Build 0)  -->
<svg version="1.1" id="Layer_1" xmlns="http://www.w3.org/2000/svg" xmlns:xlink="http://www.w3.org/1999/xlink" x="0px" y="0px"
	 viewBox="0 0 488 488" style="enable-background:new 0 0 488 488;" xml:space="preserve">
<g transform="translate(0 -540.36)">
	<g>
		<g>
			<path d="M422.686,857.995L392.18,837.3c-3.201-2.199-7.502-2.299-10.802-0.3s-5.201,5.899-4.701,9.798l6.201,50.888
				c-2.2-0.5-4.601-0.8-7.001-0.8c-16.403,0-29.806,13.797-29.806,30.693s13.403,30.693,29.806,30.693
				c16.903,0,30.606-13.797,30.606-30.693c0-1.1-0.1-2.199-0.2-3.299c0,0,0,0,0-0.1l-7.101-57.986l12.303,8.298
				c4.601,3.099,10.802,1.9,13.903-2.699C428.488,867.293,427.287,861.094,422.686,857.995z M375.977,938.176
				c-5.301,0-9.802-4.899-9.802-10.698s4.501-10.698,9.802-10.698c5.501,0,9.902,4.099,10.502,9.398v0.2c0,0.3,0.1,0.7,0.1,1.1
				C386.479,933.478,381.878,938.176,375.977,938.176z"/>
			<path d="M406.483,798.009L406.483,798.009V569.863c0-3.299-1.6-6.299-4.301-8.198s-6.101-2.299-9.202-1.2l-189.339,70.683
				L13.503,560.465c-3.101-1.1-6.501-0.7-9.202,1.2S0,566.563,0,569.863v296.431c0,4.199,2.601,7.898,6.501,9.398l193.64,71.183
				c0.1,0,0.1,0,0.2,0.1c0.2,0.1,0.3,0.1,0.5,0.2c0.1,0,0.3,0.1,0.4,0.1c0.2,0,0.3,0.1,0.5,0.1c0.2,0,0.4,0.1,0.5,0.1
				c0.1,0,0.3,0,0.4,0.1c0.3,0,0.6,0,0.9,0c0.3,0,0.6,0,1,0c0.1,0,0.3,0,0.4-0.1c0.2,0,0.3,0,0.5-0.1c0.2,0,0.3-0.1,0.5-0.1
				c0.1,0,0.3-0.1,0.4-0.1c0.2-0.1,0.3-0.1,0.5-0.2c0.1,0,0.2,0,0.2-0.1l68.814-26.094c3.701,21.495,14.003,41.29,29.806,56.987
				c20.104,19.995,46.91,31.093,75.515,31.093c28.506,0,55.311-10.997,75.515-31.093C476.898,957.672,488,930.878,488,902.285
				C488.1,851.797,453.293,809.407,406.483,798.009z M193.64,923.18L20.004,859.295V584.259l173.635,64.585V923.18z
				 M274.456,899.985l-60.812,23.095V648.844l172.835-64.485V795.11c-1.7-0.1-3.501-0.1-5.201-0.1
				C323.166,795.01,275.756,841.899,274.456,899.985z M381.278,988.765c-47.91,0-86.818-38.791-86.818-86.48
				c0-48.089,38.908-87.28,86.818-87.28s86.818,39.191,86.818,87.28C468.096,949.974,429.188,988.765,381.278,988.765z"/>
		</g>
	</g>
</g>
<g>
</g>
<g>
</g>
<g>
</g>
<g>
</g>
<g>
</g>
<g>
</g>
<g>
</g>
<g>
</g>
<g>
</g>
<g>
</g>
<g>
</g>
<g>
</g>
<g>
</g>
<g>
</g>
<g>
</g>
</svg>
